<svg id="Layer_1" data-name="Layer 1" xmlns="http://www.w3.org/2000/svg" xmlns:xlink="http://www.w3.org/1999/xlink" viewBox="0 0 334.81 183.04"><defs><style>.cls-1,.cls-11,.cls-2,.cls-3,.cls-8{stroke:#231f20;}.cls-1,.cls-11,.cls-2,.cls-3,.cls-5,.cls-8,.cls-9{stroke-miterlimit:10;}.cls-1,.cls-8{opacity:0.4;}.cls-1{fill:url(#linear-gradient);}.cls-11,.cls-2,.cls-3,.cls-5,.cls-9{fill:none;}.cls-2{stroke-dasharray:8 2 2 2 2 2;}.cls-3{stroke-dasharray:5;}.cls-4,.cls-7{fill:#231f20;}.cls-5{stroke:#8d4b9d;}.cls-11,.cls-5,.cls-9{stroke-width:2px;}.cls-6{fill:#8d4b9d;}.cls-7{font-size:12px;font-family:MyriadPro-Regular, Myriad Pro;}.cls-8{fill:url(#linear-gradient-2);}.cls-9{stroke:#51b6e7;}.cls-10{fill:#51b6e7;}.cls-12{letter-spacing:0.01em;}.cls-13{letter-spacing:-0.01em;}.cls-14{letter-spacing:0em;}.cls-15{letter-spacing:-0.01em;}</style><linearGradient id="linear-gradient" x1="57.73" y1="123.15" x2="57.73" y2="8.69" gradientUnits="userSpaceOnUse"><stop offset="0" stop-color="#fff"/><stop offset="0.07" stop-color="#f9f9f9"/><stop offset="0.16" stop-color="#e8e9e9"/><stop offset="0.26" stop-color="#cdcdcf"/><stop offset="0.37" stop-color="#a6a8aa"/><stop offset="0.46" stop-color="#848689"/><stop offset="1"/></linearGradient><linearGradient id="linear-gradient-2" x1="277.08" y1="123.15" x2="277.08" y2="8.69" xlink:href="#linear-gradient"/></defs><title>Measurement2</title><circle class="cls-1" cx="57.73" cy="72.2" r="57.23"/><path class="cls-2" d="M285.47,456.93" transform="translate(-112.54 -279.44)"/><path class="cls-2" d="M286.1,253.78" transform="translate(-112.54 -279.44)"/><ellipse class="cls-3" cx="57.73" cy="72.2" rx="57.23" ry="7.89"/><ellipse class="cls-3" cx="59.38" cy="72.2" rx="16.11" ry="57.23"/><line class="cls-4" x1="57.76" y1="72.2" x2="114.97" y2="72.2"/><line class="cls-5" x1="57.76" y1="72.2" x2="112.68" y2="72.2"/><polygon class="cls-6" points="108.7 75.59 112.09 72.2 108.7 68.81 111.58 68.81 114.97 72.2 111.58 75.59 108.7 75.59"/><text class="cls-7" transform="translate(55.86 10.04)">0</text><text class="cls-7" transform="translate(55.86 141.63)">1</text><circle class="cls-8" cx="277.08" cy="72.2" r="57.23"/><path class="cls-2" d="M446.87,259.48" transform="translate(-112.54 -279.44)"/><ellipse class="cls-3" cx="277.08" cy="72.2" rx="57.23" ry="7.89"/><ellipse class="cls-3" cx="278.72" cy="72.2" rx="16.11" ry="57.23"/><line class="cls-4" x1="278.72" y1="72.2" x2="278.72" y2="129.43"/><line class="cls-9" x1="278.72" y1="72.2" x2="278.72" y2="127.15"/><polygon class="cls-10" points="275.33 123.16 278.72 126.56 282.11 123.16 282.11 126.04 278.72 129.43 275.33 126.04 275.33 123.16"/><text class="cls-7" transform="translate(275.2 10.04)">0</text><text class="cls-7" transform="translate(275.2 141.63)">1</text><line class="cls-4" x1="132.8" y1="72.2" x2="205.29" y2="72.2"/><line class="cls-11" x1="132.8" y1="72.2" x2="197.25" y2="72.2"/><polygon class="cls-4" points="195.62 77.78 205.29 72.2 195.62 66.61 195.62 77.78"/><text class="cls-7" transform="translate(132.92 91.94)"><tspan class="cls-12">M</tspan><tspan x="9.72" y="0">easu</tspan><tspan class="cls-13" x="32.88" y="0">r</tspan><tspan x="36.68" y="0">eme</tspan><tspan class="cls-14" x="58.72" y="0">n</tspan><tspan x="65.33" y="0" xml:space="preserve">t   </tspan><tspan x="0" y="14.4">with </tspan><tspan class="cls-15" x="24.82" y="14.4">r</tspan><tspan x="28.62" y="14.4">esult 1</tspan></text><text x="-112.54" y="-279.44"/></svg>