<svg id="Layer_1" data-name="Layer 1" xmlns="http://www.w3.org/2000/svg" xmlns:xlink="http://www.w3.org/1999/xlink" viewBox="0 0 334.81 183.04"><defs><style>.cls-1,.cls-12,.cls-19,.cls-2,.cls-3,.cls-8{stroke:#231f20;}.cls-1,.cls-10,.cls-12,.cls-16,.cls-17,.cls-19,.cls-2,.cls-3,.cls-5,.cls-8{stroke-miterlimit:10;}.cls-1,.cls-8{opacity:0.4;}.cls-1{fill:url(#linear-gradient);}.cls-10,.cls-12,.cls-16,.cls-17,.cls-19,.cls-2,.cls-3,.cls-5{fill:none;}.cls-16,.cls-2{stroke-dasharray:8 2 2 2 2 2;}.cls-3{stroke-dasharray:5;}.cls-4,.cls-7{fill:#231f20;}.cls-16,.cls-5{stroke:#ed2024;}.cls-10,.cls-12,.cls-16,.cls-5{stroke-width:2px;}.cls-6{fill:#ed2024;}.cls-7{font-size:12px;font-family:MyriadPro-Regular, Myriad Pro;}.cls-8{fill:url(#linear-gradient-2);}.cls-9{fill:#55479d;}.cls-10{stroke:#9052a1;}.cls-11{fill:#9052a1;}.cls-13{letter-spacing:0em;}.cls-14{letter-spacing:0em;}.cls-15{opacity:0.3;}.cls-17{stroke:#7bc143;}.cls-18{fill:#7bc143;}</style><linearGradient id="linear-gradient" x1="57.73" y1="123.15" x2="57.73" y2="8.69" gradientUnits="userSpaceOnUse"><stop offset="0" stop-color="#fff"/><stop offset="0.07" stop-color="#f9f9f9"/><stop offset="0.16" stop-color="#e8e9e9"/><stop offset="0.26" stop-color="#cdcdcf"/><stop offset="0.37" stop-color="#a6a8aa"/><stop offset="0.46" stop-color="#848689"/><stop offset="1"/></linearGradient><linearGradient id="linear-gradient-2" x1="277.08" y1="123.15" x2="277.08" y2="8.69" xlink:href="#linear-gradient"/></defs><title>H</title><circle class="cls-1" cx="57.73" cy="72.2" r="57.23"/><path class="cls-2" d="M285.47,456.93" transform="translate(-112.54 -279.44)"/><path class="cls-2" d="M286.1,253.78" transform="translate(-112.54 -279.44)"/><ellipse class="cls-3" cx="57.73" cy="72.2" rx="57.23" ry="7.89"/><ellipse class="cls-3" cx="59.38" cy="72.2" rx="16.11" ry="57.23"/><line class="cls-4" x1="59.38" y1="72.2" x2="59.38" y2="14.97"/><line class="cls-5" x1="59.38" y1="72.2" x2="59.38" y2="17.25"/><polygon class="cls-6" points="62.77 21.23 59.38 17.84 55.99 21.23 55.99 18.36 59.38 14.96 62.77 18.36 62.77 21.23"/><text class="cls-7" transform="translate(55.86 10.04)">0</text><text class="cls-7" transform="translate(55.86 141.63)">1</text><circle class="cls-8" cx="277.08" cy="72.2" r="57.23"/><path class="cls-2" d="M446.87,259.48" transform="translate(-112.54 -279.44)"/><ellipse class="cls-3" cx="277.08" cy="72.2" rx="57.23" ry="7.89"/><ellipse class="cls-3" cx="278.72" cy="72.2" rx="16.11" ry="57.23"/><line class="cls-9" x1="278.72" y1="72.2" x2="334.31" y2="72.2"/><line class="cls-10" x1="278.72" y1="72.2" x2="332.02" y2="72.2"/><polygon class="cls-11" points="328.04 75.59 331.43 72.2 328.04 68.81 330.92 68.81 334.31 72.2 330.92 75.59 328.04 75.59"/><text class="cls-7" transform="translate(275.2 10.04)">0</text><text class="cls-7" transform="translate(275.2 141.63)">1</text><line class="cls-4" x1="132.8" y1="72.2" x2="205.29" y2="72.2"/><line class="cls-12" x1="132.8" y1="72.2" x2="197.25" y2="72.2"/><polygon class="cls-4" points="195.62 77.78 205.29 72.2 195.62 66.61 195.62 77.78"/><text class="cls-7" transform="translate(152.87 92.08)"><tspan class="cls-13">A<tspan class="cls-14" x="7.31" y="0">pply</tspan></tspan><tspan x="0" y="14.4" xml:space="preserve">    H</tspan></text><text x="-112.54" y="-279.44"/><text x="-112.54" y="-279.44"/><g class="cls-15"><line class="cls-4" x1="278.72" y1="72.2" x2="278.72" y2="14.97"/><line class="cls-16" x1="278.72" y1="72.2" x2="278.72" y2="17.25"/><polygon class="cls-6" points="282.11 21.23 278.72 17.84 275.33 21.23 275.33 18.36 278.72 14.96 282.11 18.36 282.11 21.23"/></g><path class="cls-17" d="M391.26,326.08c11.82,0,21.57,9.56,23.16,22" transform="translate(-112.54 -279.44)"/><path class="cls-18" d="M414.33,347.69a7.4,7.4,0,0,1,4.41-1.93,13.52,13.52,0,0,0-4.1,5.88,14.39,14.39,0,0,0-5-5.18A7.55,7.55,0,0,1,414.33,347.69Z" transform="translate(-112.54 -279.44)"/><line class="cls-19" x1="278.72" y1="46.64" x2="278.72" y2="46.64"/><path class="cls-19" d="M406.54,331h0" transform="translate(-112.54 -279.44)"/></svg>